<svg xmlns="http://www.w3.org/2000/svg" style="display:none">
  <symbol id="icon-logo" viewBox="0 0 44 44">
    <rect width="44" height="44" rx="8" fill="#59B17A"/>
    <path d="M22 8c-1.5 0-3 .75-3.75 2.25L16 16h-2.25c-1.5 0-2.25 1.2-2.25 2.25s.75 2.25 2.25 2.25H16l3 7.5c.45 1.05 1.5 1.5 2.25 1.5h1.5c.75 0 1.8-.45 2.25-1.5l3-7.5h2.25c1.5 0 2.25-1.2 2.25-2.25S32.75 16 31.25 16H28l-2.25-5.25C25 8.75 23.5 8 22 8z" fill="white"/>
  </symbol>
  <symbol id="icon-pills-decor" viewBox="0 0 279 257" fill="none">
    <path fill="#59B17A" fill-opacity=".08" d="M40.55 186.003c7.382-18.271 28.178-27.099 46.45-19.717l278.844 112.661-26.733 66.166-278.844-112.66c-18.272-7.382-27.1-28.179-19.717-46.45Zm98.551-152.92c7.382-18.271 28.178-27.099 46.449-19.716l278.845 112.66-26.733 66.166-278.844-112.66c-18.272-7.382-27.099-28.178-19.717-46.45ZM13.366 78.96c7.383-18.272 28.179-27.1 46.45-19.717l278.844 112.66-26.733 66.166-278.844-112.66c-18.271-7.382-27.099-28.178-19.717-46.45Z"/>
  </symbol>
  <symbol id="icon-facebook" viewBox="0 0 24 24">
    <path d="M18 2h-3a5 5 0 0 0-5 5v3H7v4h3v8h4v-8h3l1-4h-4V7a1 1 0 0 1 1-1h3z" fill="none" stroke="currentColor" stroke-width="2" stroke-linecap="round" stroke-linejoin="round"/>
  </symbol>
  <symbol id="icon-instagram" viewBox="0 0 24 24">
    <rect x="2" y="2" width="20" height="20" rx="5" ry="5" fill="none" stroke="currentColor" stroke-width="2"/>
    <circle cx="12" cy="12" r="4" fill="none" stroke="currentColor" stroke-width="2"/>
    <circle cx="17.5" cy="6.5" r="1.5" fill="currentColor"/>
  </symbol>
  <symbol id="icon-youtube" viewBox="0 0 24 24">
    <path d="M22.54 6.42a2.78 2.78 0 0 0-1.94-2C18.88 4 12 4 12 4s-6.88 0-8.6.46a2.78 2.78 0 0 0-1.94 2A29 29 0 0 0 1 11.75a29 29 0 0 0 .46 5.33A2.78 2.78 0 0 0 3.4 19.13c1.72.46 8.6.46 8.6.46s6.88 0 8.6-.46a2.78 2.78 0 0 0 1.94-2 29 29 0 0 0 .46-5.25 29 29 0 0 0-.46-5.46z" fill="none" stroke="currentColor" stroke-width="2"/>
    <polygon points="9.75,15.02 15.5,11.75 9.75,8.48" fill="currentColor"/>
  </symbol>
  <symbol id="icon-location" viewBox="0 0 24 24">
    <path d="M21 10c0 7-9 13-9 13s-9-6-9-13a9 9 0 0 1 18 0z" fill="none" stroke="currentColor" stroke-width="2"/>
    <circle cx="12" cy="10" r="3" fill="none" stroke="currentColor" stroke-width="2"/>
  </symbol>
  <symbol id="icon-phone" viewBox="0 0 24 24">
    <path d="M22 16.92v3a2 2 0 0 1-2.18 2 19.79 19.79 0 0 1-8.63-3.07 19.5 19.5 0 0 1-6-6 19.79 19.79 0 0 1-3.07-8.67A2 2 0 0 1 4.11 2h3a2 2 0 0 1 2 1.72 12.84 12.84 0 0 0 .7 2.81 2 2 0 0 1-.45 2.11L8.09 9.91a16 16 0 0 0 6 6l1.27-1.27a2 2 0 0 1 2.11-.45 12.84 12.84 0 0 0 2.81.7A2 2 0 0 1 22 16.92z" fill="none" stroke="currentColor" stroke-width="2"/>
  </symbol>
  <symbol id="icon-star" viewBox="0 0 24 24">
    <polygon points="12,2 15.09,8.26 22,9.27 17,14.14 18.18,21.02 12,17.77 5.82,21.02 7,14.14 2,9.27 8.91,8.26" fill="currentColor" stroke="currentColor" stroke-width="1"/>
  </symbol>
  <symbol id="icon-star-empty" viewBox="0 0 24 24">
    <polygon points="12,2 15.09,8.26 22,9.27 17,14.14 18.18,21.02 12,17.77 5.82,21.02 7,14.14 2,9.27 8.91,8.26" fill="none" stroke="currentColor" stroke-width="2"/>
  </symbol>
</svg>
